# File produced by Open Asset Import Library (http://www.assimp.sf.net)
# (assimp v5.0.1937526254)

mtllib wall2.mtl

# 133 vertex positions
v  3.02432609 4 0
v  -2.97567391 4 0
v  -2.97567391 4 2.5
v  3.02432609 4 2.5
v  3.02432609 3.8499999 0
v  -2.97567391 3.8499999 0
v  -2.97567391 3.8499999 2.5
v  3.02432609 3.8499999 2.5
v  3.02433014 -4 0
v  3.02433014 4 0
v  3.02433014 4 2.5
v  3.02433014 -4 2.5
v  2.87433004 -4 0
v  2.87433004 4 0
v  2.87433004 4 2.5
v  2.87433004 -4 2.5
v  -2.97567391 -4 0
v  3.02432609 -4 0
v  3.02432609 -4 2.5
v  -2.97567391 -4 2.5
v  -2.97567391 -3.8499999 0
v  3.02432609 -3.8499999 0
v  3.02432609 -3.8499999 2.5
v  -2.97567391 -3.8499999 2.5
v  -2.82567 -4 0
v  -2.82567 4 0
v  -2.82567 4 2.5
v  -2.82567 -4 2.5
v  -2.9756701 -4 0
v  -2.9756701 4 0
v  -2.9756701 4 2.5
v  -2.9756701 -4 2.5
v  -0.929360032 0.0350000039 0.00499999523
v  -2.92935991 0.0350000039 0.00499999523
v  -2.92935991 0.0350000039 2.49499989
v  -0.929360032 0.0350000039 2.49499989
v  -0.929360032 -0.115000002 0.00499999523
v  -2.92935991 -0.115000002 0.00499999523
v  -2.92935991 -0.115000002 2.49499989
v  -0.929360032 -0.115000002 2.49499989
v  2.92359996 0.0350000039 0.00499999523
v  0.923599958 0.0350000039 0.00499999523
v  0.923599958 0.0350000039 2.49499989
v  2.92359996 0.0350000039 2.49499989
v  2.92359996 -0.115000002 0.00499999523
v  0.923599958 -0.115000002 0.00499999523
v  0.923599958 -0.115000002 2.49499989
v  2.92359996 -0.115000002 2.49499989
v  0.301999986 1.86599994 -4.58662486e-09
v  0.301999986 2.13400006 4.58662486e-09
v  0.365999997 2.19799995 6.77725165e-09
v  0.634000003 2.19799995 6.77725165e-09
v  0.698000014 2.13400006 4.58662486e-09
v  0.698000014 1.86599994 -4.58662486e-09
v  0.634000003 1.80200005 -6.77725165e-09
v  0.365999997 1.80200005 -6.77725165e-09
v  0.634000003 1.80200005 0.051819995
v  0.365999997 1.80200005 0.051819995
v  0.698000014 2.13400006 0.0518200062
v  0.698000014 1.86599994 0.0518199988
v  0.365999997 2.19799995 0.0518200099
v  0.634000003 2.19799995 0.0518200099
v  0.301999986 1.86599994 0.0518199988
v  0.301999986 2.13400006 0.0518200062
v  0.369313776 1.80999994 0.0598200001
v  0.630686224 1.80999994 0.0598200001
v  0.689999998 1.86931384 0.0598200038
v  0.689999998 2.13068628 0.0598200113
v  0.630686224 2.19000006 0.059820015
v  0.369313776 2.19000006 0.059820015
v  0.310000002 2.13068628 0.0598200113
v  0.310000002 1.86931384 0.0598200038
v  0.49999994 1.84700394 0.0598200038
v  0.535185575 2.02031446 0.852000117
v  0.540628791 2 0.852000117
v  0.641198218 2 0.0713318065
v  0.622281194 2.07059908 0.0713318065
v  0.520314395 2.03518558 0.852000117
v  0.570599198 2.12228131 0.0713318139
v  0.49999997 2.04062867 0.852000117
v  0.5 2.14119816 0.0713318139
v  0.479685605 2.03518558 0.852000117
v  0.429400802 2.12228131 0.0713318139
v  0.464814395 2.02031446 0.852000117
v  0.377718806 2.07059908 0.0713318065
v  0.459371209 2 0.852000117
v  0.358801782 2 0.0713318065
v  0.464814395 1.97968554 0.852000117
v  0.377718806 1.9294008 0.0713318065
v  0.479685605 1.96481442 0.852000117
v  0.429400802 1.87771881 0.071331799
v  0.49999997 1.95937121 0.852000117
v  0.49999994 1.85880184 0.071331799
v  0.520314395 1.96481442 0.852000117
v  0.57059902 1.87771881 0.071331799
v  0.535185575 1.97968554 0.852000117
v  0.622281194 1.9294008 0.0713318065
v  0.528925598 2.01670027 0.857392073
v  0.533400416 2 0.857392073
v  0.516700208 2.02892566 0.857392073
v  0.49999997 2.0334003 0.857392073
v  0.483299792 2.02892566 0.857392073
v  0.471074402 2.01670027 0.857392073
v  0.466599584 2 0.857392073
v  0.471074402 1.98329973 0.857392073
v  0.483299792 1.97107434 0.857392073
v  0.49999997 1.96659958 0.857392073
v  0.516700208 1.97107434 0.857392073
v  0.528925598 1.98329973 0.857392073
v  0.526171982 2 0.852000117
v  0.52266562 2.01308584 0.852000117
v  0.49999997 2 0.807835996
v  0.513085961 2.0226655 0.852000117
v  0.49999997 2.02617192 0.852000117
v  0.486914009 2.0226655 0.852000117
v  0.47733441 2.01308584 0.852000117
v  0.473827988 2 0.852000117
v  0.47733441 1.98691404 0.852000117
v  0.486914009 1.97733438 0.852000117
v  0.49999997 1.97382796 0.852000117
v  0.513085961 1.97733438 0.852000117
v  0.52266562 1.98691392 0.852000117
v  0.652996004 2 0.0598200075
v  0.632221818 1.92092681 0.0598200038
v  0.632221818 2.07907319 0.0598200113
v  0.579073191 1.86777818 0.0598200038
v  0.347003996 2 0.0598200075
v  0.420926809 1.86777818 0.0598200038
v  0.367778182 1.92092681 0.0598200038
v  0.5 2.15299606 0.0598200113
v  0.367778182 2.07907319 0.0598200113
v  0.420926809 2.1322217 0.0598200113
v  0.579073191 2.1322217 0.0598200113

# 131 UV coordinates
vt 5.62761463e-42 0 1
vt 1.41531145e-43 0 1
vt -1.90327268e-12 4.57916312e-41 1
vt -2.19961465e+12 4.58112494e-41 1
vt 1.84031126e-40 0 1
vt 8.55280722e-23 0 1
vt 0 0 1
vt -1.90322064e-12 4.57916312e-41 1
vt 1.57926337e-42 0 1
vt 1.34524653e-43 0 1
vt 7.37783641e-42 0 1
vt -1.8193641e-12 4.57916312e-41 1
vt -1.83692991e-12 4.57916312e-41 1
vt -1.87164173e-12 4.57916312e-41 1
vt -1.93250103e-12 4.57916312e-41 1
vt 7.28815331e-42 0 1
vt -1.92989374e-12 4.57916312e-41 1
vt -1.93116703e-12 4.57916312e-41 1
vt -2.06933608e+33 4.58112494e-41 1
vt 2.35960861e-35 0 1
vt 2.4022359e-21 0 1
vt 1.68365588e-09 4.5814052e-41 1
vt 2.35967749e-35 0 1
vt 5.07901215e-23 0 1
vt -2.06868694e+33 4.58112494e-41 1
vt 2.35966371e-35 0 1
vt 2.09201732e-21 0 1
vt 2.35970504e-35 0 1
vt 2.55013347e-29 0 1
vt 2.35976014e-35 0 1
vt 3.76215589e-37 2.37337388e-38 1
vt -2.0682665e+33 4.58112494e-41 1
vt 6.99668323e-42 0 1
vt -1.91528737e-12 4.57916312e-41 1
vt -1.91264019e-12 4.57916312e-41 1
vt 4.70836284e-43 0 1
vt 2.18042041e-42 0 1
vt 0.00186803995 0.143660009 1
vt 0.00186803995 0.737824023 1
vt 0.143757999 0.879714012 1
vt 0.737922013 0.879714012 1
vt 0.879812002 0.737824023 1
vt 0.879812002 0.143660009 1
vt 0.737922013 0.00176995993 1
vt 0.143757999 0.00176995993 1
vt 0.231564999 0.89477098 1
vt 0.877704978 0.89477098 1
vt 0.877704978 0.991131008 1
vt 0.231564999 0.991131008 1
vt 0.660769999 0.89477098 1
vt 0.0146297002 0.89477098 1
vt 0.0146297002 0.991131008 1
vt 0.660769999 0.991131008 1
vt 0.0146295996 0.89477098 1
vt 0.0146295996 0.991131008 1
vt 0.151105002 0.019506216 1
vt 0.730575979 0.019506216 1
vt 0.862075984 0.151006997 1
vt 0.862075984 0.730477989 1
vt 0.730575979 0.861977994 1
vt 0.151105002 0.861977994 1
vt 0.0196043998 0.730477989 1
vt 0.0196043998 0.151006997 1
vt 0.440840006 0.101544976 1
vt 0.958819985 0.995240986 1
vt 0.932891011 0.995240986 1
vt 0.900801003 0.0253494978 1
vt 0.990911007 0.025349617 1
vt 0.91682601 0.861988008 1
vt 0.906368017 0.855955005 1
vt 0.912436008 0.833281994 1
vt 0.924510002 0.833281994 1
vt 0.895821989 0.88301301 1
vt 0.889782012 0.872560024 1
vt 0.867115021 0.890712023 1
vt 0.867115021 0.878639996 1
vt 0.838407993 0.88301301 1
vt 0.844447017 0.872560024 1
vt 0.817403018 0.861988008 1
vt 0.827861011 0.855955005 1
vt 0.80971998 0.833281994 1
vt 0.821793973 0.833281994 1
vt 0.817403972 0.804575026 1
vt 0.827861011 0.810608029 1
vt 0.838407993 0.783550024 1
vt 0.844447017 0.79400301 1
vt 0.867115021 0.775851011 1
vt 0.867115021 0.787922978 1
vt 0.895821989 0.783549011 1
vt 0.889782012 0.79400301 1
vt 0.91682601 0.804575026 1
vt 0.906368971 0.810608029 1
vt 0.109070003 0.872420013 1
vt 0.0926292986 0.880136013 1
vt 0.0718680993 0.814530015 1
vt 0.0747421011 0.883283973 1
vt 0.0566536002 0.881641984 1
vt 0.0396239012 0.875322998 1
vt 0.0248400997 0.864767015 1
vt 0.0133325998 0.850708008 1
vt 0.00590476999 0.834129989 1
vt 0.00307387998 0.816187024 1
vt 0.00503600994 0.798130989 1
vt 0.0116534 0.781219006 1
vt 0.0224642009 0.766627014 1
vt 0.122919001 0.860670984 1
vt 0.780036986 0.440742016 1
vt 0.73398 0.265434027 1
vt 0.73398 0.616050005 1
vt 0.616147995 0.147602022 1
vt 0.101643004 0.440742016 1
vt 0.265531987 0.147602022 1
vt 0.147699997 0.265434027 1
vt 0.440840006 0.779938996 1
vt 0.147699997 0.616050005 1
vt 0.265531987 0.73388201 1
vt 0.616147995 0.73388201 1
vt 0.994813025 0.0046774745 1
vt 0.896898985 0.0046775341 1
vt 0.895910025 0.849922001 1
vt 0.900362015 0.833281994 1
vt 0.883741975 0.862106979 1
vt 0.867115021 0.866568029 1
vt 0.850486994 0.862106025 1
vt 0.838319004 0.849922001 1
vt 0.833867013 0.833281994 1
vt 0.838319004 0.816640973 1
vt 0.850486994 0.804455996 1
vt 0.867115021 0.799995005 1
vt 0.883742988 0.804455996 1
vt 0.895910978 0.816640973 1

# 169 vertex normals
vn 1.83697e-19 0.00150000001 0
vn 0 0 -0.0250000004
vn -0.0599999987 7.34788095e-18 0
vn 0 0 0.0250000004
vn 0.0599999987 -7.34788095e-18 0
vn -1.83697e-19 -0.00150000001 0
vn 0.00150000001 -3.3306691e-19 0
vn 1.7763568e-17 0.0799999982 0
vn -1.7763568e-17 -0.0799999982 0
vn -0.00150000001 3.3306691e-19 0
vn 0 -0.00150000001 0
vn 0.0599999987 0 0
vn -0.0599999987 0 0
vn 0 0.00150000001 0
vn 1.83697026e-19 0.00150000001 0
vn 0 0 -0.0249000005
vn -0.0199999996 2.44929379e-18 0
vn 0 0 0.0249000005
vn 0.0199999996 -2.44929379e-18 0
vn -1.83697026e-19 -0.00150000001 0
vn 0 6.84570872e-11 -0.00200000009
vn 0 -0.00200000009 -6.84570872e-11
vn 0.00200000009 0 0
vn 0 0.00200000009 6.84570872e-11
vn -0.00200000009 0 0
vn 0.00141421356 -0.00141421356 -4.84064663e-11
vn 0.00141421333 -0.0014142138 -4.84064767e-11
vn -0.00141421356 -0.00141421356 -4.84064663e-11
vn -0.00141421333 -0.0014142138 -4.84064767e-11
vn 0.00141421333 0.0014142138 4.84064767e-11
vn 0.00141421356 0.00141421356 4.84064663e-11
vn -0.00141421356 0.00141421356 4.84064663e-11
vn -0.00141421333 0.0014142138 4.84064767e-11
vn 0 -0.00141421298 0.00141421403
vn 0 -0.001414211 0.00141421636
vn 0.00141421403 -4.8406449e-11 0.00141421298
vn 0.0014142138 -4.84064629e-11 0.00141421333
vn 0 0.00141421298 0.00141421403
vn 0 0.001414211 0.00141421636
vn -0.00141421403 -4.8406449e-11 0.00141421298
vn -0.0014142138 -4.84064629e-11 0.00141421333
vn -0.000999997137 -0.000999996555 0.0014142181
vn -0.000999995274 -0.000999995857 0.00141421985
vn 0.000999996788 -0.00099999737 0.00141421764
vn 0.00099999574 -0.000999995158 0.00141422031
vn -0.000999996788 0.00099999737 0.00141421764
vn -0.00099999574 0.000999995158 0.00141422031
vn 0.000999997137 0.000999996555 0.0014142181
vn 0.000999995274 0.000999995857 0.00141421985
vn 0 -6.84570872e-11 0.00200000009
vn 0.00191706733 0.000513674284 0.000246965821
vn 0.00191706675 0.000513676612 0.000246965647
vn 0.00140338996 0.00140339043 0.000246965792
vn 0.00140339031 0.00140339008 0.000246965792
vn 0.000513672712 0.00191706792 0.000246965792
vn 0.000513676554 0.00191706675 0.000246965734
vn -0.000513674517 0.0019170671 0.000246965763
vn -0.000513676729 0.00191706675 0.000246965676
vn -0.00140339043 0.00140338996 0.000246965734
vn -0.00140339031 0.0014033902 0.00024696585
vn -0.00191706722 0.0005136744 0.000246965559
vn -0.00191706675 0.000513676787 0.000246965705
vn -0.00191706745 -0.000513674051 0.000246965705
vn -0.00191706675 -0.000513676554 0.000246965588
vn -0.00140338996 -0.00140339043 0.000246965676
vn -0.00140339031 -0.00140339008 0.000246965676
vn -0.000513673702 -0.00191706745 0.000246965559
vn -0.000513677136 -0.00191706663 0.000246965647
vn 0.000513673469 -0.00191706745 0.000246965676
vn 0.000513677485 -0.0019170664 0.000246965501
vn 0.00140339043 -0.00140338996 0.000246965268
vn 0.00140338764 -0.00140339276 0.000246965559
vn 0.00118076405 0.000316389138 0.00158293848
vn 0.0011808062 0.000316382298 0.00158290856
vn 0.000864398433 0.000864383241 0.00158292684
vn 0.000864384929 0.00086438749 0.00158293208
vn 0.000316386984 0.00118077674 0.0015829294
vn 0.000316388963 0.0011807743 0.00158293103
vn -0.000316370948 0.00118077593 0.00158293336
vn -0.000316402438 0.00118077488 0.00158292789
vn -0.000864375732 0.000864388887 0.00158293615
vn -0.000864406931 0.000864383765 0.00158292206
vn -0.00118076627 0.000316389283 0.00158293685
vn -0.00118078792 0.000316384714 0.00158292172
vn -0.00118074368 -0.000316392165 0.00158295338
vn -0.00118078943 -0.000316384801 0.00158292067
vn -0.000864402507 -0.000864384463 0.00158292393
vn -0.000864384929 -0.000864387606 0.00158293208
vn -0.00031638713 -0.00118077686 0.00158292917
vn -0.000316389807 -0.00118077488 0.00158293056
vn 0.000316370686 -0.00118077523 0.00158293394
vn 0.000316401769 -0.00118077523 0.00158292765
vn 0.000864376605 -0.000864392729 0.00158293371
vn 0.000864404661 -0.000864381611 0.00158292428
vn 0.0011807452 -0.000316392106 0.0015829521
vn 0.00118078827 -0.000316384889 0.00158292148
vn -0.0016766038 -0.000449246727 0.000993568217
vn -0.00122735673 -0.0012273608 0.000993569964
vn -0.000449248648 -0.00167660275 0.000993568799
vn 0.000449242507 -0.00167660415 0.000993569498
vn 0.00122735812 -0.00122735975 0.000993569614
vn 0.00167660485 -0.000449246669 0.000993566355
vn 0.00167660438 0.000449246814 0.00099356717
vn 0.00122735824 0.00122735987 0.000993569498
vn 0.000449249404 0.00167660264 0.000993568799
vn -0.000449242478 0.00167660427 0.000993569498
vn -0.0012273601 0.00122735987 0.00099356717
vn -0.00167660241 0.000449247105 0.000993570429
vn 0.00191706733 -0.000513674284 0.00024696553
vn 0.00191706675 -0.000513676729 0.000246965647
vn 2.11329301e-10 -6.84570803e-11 0.00199999986
vn 5.28323045e-11 -6.84570872e-11 0.00200000009
vn -1.83726576e-10 -6.84570872e-11 0.00200000009
vn 2.05038722e-10 -6.84570872e-11 0.00200000009
vn -5.28323947e-11 -6.84570872e-11 0.00200000009
vn -4.22658492e-10 -6.84570872e-11 0.00200000009
vn 2.11329315e-10 -6.84570872e-11 0.00200000009
vn -2.05038722e-10 -6.84570872e-11 0.00200000009
vn 1.83726576e-10 -6.84570872e-11 0.00200000009
vn -5.28323427e-11 -6.84570872e-11 0.00200000009
vn 5.28323219e-11 -6.84570872e-11 0.00200000009
vn -0.00093670818 0.000936708588 0.00149838394
vn -0.000936707482 0.000936708355 0.00149838487
vn -0.00137292582 0.000367874367 0.00140703365
vn -0.00135268702 0.000355379627 0.00142966525
vn -0.00134932192 -0.000361549086 0.00143129774
vn -0.0013738228 -0.000360932754 0.00140795566
vn -0.000936707656 -0.000936707715 0.00149838498
vn -0.000936707365 -0.000936708821 0.00149838463
vn 0.0013738228 0.000360932638 0.00140795566
vn 0.00134932203 0.000361548999 0.00143129763
vn 0.000936707365 0.000936708704 0.00149838463
vn 0.000936707656 0.000936707598 0.00149838498
vn 0.000355379365 0.00135268737 0.00142966537
vn 0.000367874221 0.00137292594 0.00140703341
vn -0.000360932463 0.00137382396 0.00140795449
vn -0.00036154961 0.0013493211 0.00143129821
vn -0.00035537951 -0.00135268667 0.00142966595
vn -0.000367874367 -0.00137292524 0.00140703411
vn 0.000360931852 -0.00137382292 0.00140795589
vn 0.000361549406 -0.00134931772 0.00143130147
vn 0.00135268806 -0.00035537951 0.00142966479
vn 0.00137292524 -0.0003678746 0.00140703411
vn 0.000936701661 -0.000936702825 0.00149839197
vn 0.000936706783 -0.0009367108 0.00149838359
vn -0.00118078862 -0.00031638777 0.00158292067
vn -0.00118076336 -0.000316388556 0.00158293929
vn -0.000864406116 -0.000864381262 0.00158292393
vn -0.000864374044 -0.000864390691 0.00158293603
vn -0.000316391437 -0.0011807729 0.00158293149
vn -0.000316371705 -0.00118077791 0.00158293161
vn 0.000316392659 -0.00118077639 0.00158292882
vn 0.000316386082 -0.00118077383 0.00158293196
vn 0.000864406815 -0.000864380971 0.00158292335
vn 0.000864374568 -0.000864387781 0.00158293743
vn 0.00118077977 -0.000316388614 0.00158292695
vn 0.00118076592 -0.000316388614 0.0015829372
vn 0.00118078326 0.000316388381 0.00158292451
vn 0.00118076312 0.00031638841 0.00158293941
vn 0.000864406815 0.000864380214 0.00158292393
vn 0.000864374684 0.000864388247 0.00158293708
vn 0.000316391728 0.00118077185 0.00158293231
vn 0.000316371908 0.00118077837 0.00158293126
vn -0.000316392485 0.00118077616 0.0015829287
vn -0.000316385907 0.00118077372 0.00158293196
vn -0.000864388887 0.000864385976 0.00158293056
vn -0.000864373869 0.000864390167 0.00158293662
vn -0.00118077872 0.000316388207 0.00158292777
vn -0.0011807608 0.000316388818 0.00158294104

# Mesh 'visuals' with 24 faces
g visuals
usemtl material_Oak
f  1/1/1 2/2/1 3/3/1 4/4/1
f  1/5/2 5/6/2 6/7/2 2/8/2
f  2/7/3 6/9/3 7/7/3 3/7/3
f  4/10/4 3/11/4 7/12/4 8/13/4
f  1/14/5 4/13/5 8/15/5 5/15/5
f  5/7/6 8/16/6 7/17/6 6/18/6
f  9/7/7 10/7/7 11/7/7 12/19/7
f  9/20/2 13/21/2 14/22/2 10/23/2
f  10/24/8 14/25/8 15/26/8 11/27/8
f  12/25/4 11/28/4 15/29/4 16/25/4
f  9/30/9 12/31/9 16/32/9 13/7/9
f  13/7/10 16/7/10 15/7/10 14/33/10
f  17/34/11 18/35/11 19/7/11 20/7/11
f  17/19/2 21/20/2 22/7/2 18/7/2
f  18/21/12 22/22/12 23/23/12 19/7/12
f  20/7/4 19/24/4 23/25/4 24/26/4
f  17/7/13 20/7/13 24/27/13 21/25/13
f  21/28/14 24/7/14 23/7/14 22/29/14
f  25/25/7 26/30/7 27/7/7 28/7/7
f  25/31/2 29/32/2 30/7/2 26/7/2
f  26/7/8 30/7/8 31/7/8 27/7/8
f  28/7/4 27/7/4 31/7/4 32/7/4
f  25/36/9 28/37/9 32/7/9 29/7/9
f  29/7/10 32/7/10 31/7/10 30/7/10

# Mesh 'visuals' with 12 faces
g visuals
usemtl material_material_DefaultMaterial
f  33/7/15 34/7/15 35/7/15 36/7/15
f  33/7/16 37/7/16 38/7/16 34/7/16
f  34/7/17 38/7/17 39/7/17 35/7/17
f  36/7/18 35/7/18 39/7/18 40/7/18
f  33/7/19 36/7/19 40/7/19 37/7/19
f  37/7/20 40/7/20 39/7/20 38/7/20
f  41/7/15 42/7/15 43/7/15 44/7/15
f  41/7/16 45/7/16 46/7/16 42/7/16
f  42/7/17 46/7/17 47/7/17 43/7/17
f  44/7/18 43/7/18 47/7/18 48/7/18
f  41/7/19 44/7/19 48/7/19 45/7/19
f  45/7/20 48/7/20 47/7/20 46/7/20

# Mesh 'visuals' with 166 faces
g visuals
usemtl material_Shape_001
f  49/38/21 50/39/21 51/40/21
f  51/40/21 52/41/21 53/42/21
f  49/38/21 51/40/21 53/42/21
f  53/42/21 54/43/21 55/44/21
f  49/38/21 53/42/21 55/44/21
f  56/45/21 49/38/21 55/44/21
f  56/46/22 55/47/22 57/48/22
f  57/48/22 58/49/22 56/46/22
f  54/50/23 53/51/23 59/52/23
f  59/52/23 60/53/23 54/50/23
f  52/46/24 51/47/24 61/48/24
f  61/48/24 62/49/24 52/46/24
f  50/50/25 49/51/25 63/52/25
f  63/52/25 64/53/25 50/50/25
f  55/47/26 54/50/26 60/53/26
f  60/53/27 57/48/27 55/47/27
f  58/53/28 63/48/28 49/47/28
f  49/47/29 56/50/29 58/53/29
f  53/54/30 52/46/30 62/49/30
f  62/49/31 59/55/31 53/54/31
f  51/54/32 50/46/32 64/49/32
f  64/49/33 61/55/33 51/54/33
f  65/56/34 58/45/34 57/44/34
f  57/44/35 66/57/35 65/56/35
f  67/58/36 60/43/36 59/42/36
f  59/42/37 68/59/37 67/58/37
f  69/60/38 62/41/38 61/40/38
f  61/40/39 70/61/39 69/60/39
f  71/62/40 64/39/40 63/38/40
f  63/38/41 72/63/41 71/62/41
f  58/45/42 65/56/42 72/63/42
f  72/63/43 63/38/43 58/45/43
f  60/43/44 67/58/44 66/57/44
f  66/57/45 57/44/45 60/43/45
f  64/39/46 71/62/46 70/61/46
f  70/61/47 61/40/47 64/39/47
f  62/41/48 69/60/48 68/59/48
f  68/59/49 59/42/49 62/41/49
f  73/64/50 65/56/50 66/57/50
f  74/65/51 75/66/51 76/67/51
f  76/67/52 77/68/52 74/65/52
f  78/65/53 74/66/53 77/67/53
f  77/67/54 79/68/54 78/65/54
f  80/65/55 78/66/55 79/67/55
f  79/67/56 81/68/56 80/65/56
f  82/65/57 80/66/57 81/67/57
f  81/67/58 83/68/58 82/65/58
f  84/65/59 82/66/59 83/67/59
f  83/67/60 85/68/60 84/65/60
f  86/65/61 84/66/61 85/67/61
f  85/67/62 87/68/62 86/65/62
f  88/65/63 86/66/63 87/67/63
f  87/67/64 89/68/64 88/65/64
f  90/65/65 88/66/65 89/67/65
f  89/67/66 91/68/66 90/65/66
f  92/65/67 90/66/67 91/67/67
f  91/67/68 93/68/68 92/65/68
f  94/65/69 92/66/69 93/67/69
f  93/67/70 95/68/70 94/65/70
f  96/65/71 94/66/71 95/67/71
f  95/67/72 97/68/72 96/65/72
f  74/69/73 98/70/73 99/71/73
f  99/71/74 75/72/74 74/69/74
f  78/73/75 100/74/75 98/70/75
f  98/70/76 74/69/76 78/73/76
f  80/75/77 101/76/77 100/74/77
f  100/74/78 78/73/78 80/75/78
f  82/77/79 102/78/79 101/76/79
f  101/76/80 80/75/80 82/77/80
f  84/79/81 103/80/81 102/78/81
f  102/78/82 82/77/82 84/79/82
f  86/81/83 104/82/83 103/80/83
f  103/80/84 84/79/84 86/81/84
f  88/83/85 105/84/85 104/82/85
f  104/82/86 86/81/86 88/83/86
f  90/85/87 106/86/87 105/84/87
f  105/84/88 88/83/88 90/85/88
f  92/87/89 107/88/89 106/86/89
f  106/86/90 90/85/90 92/87/90
f  94/89/91 108/90/91 107/88/91
f  107/88/92 92/87/92 94/89/92
f  96/91/93 109/92/93 108/90/93
f  108/90/94 94/89/94 96/91/94
f  75/72/95 99/71/95 109/92/95
f  109/92/96 96/91/96 75/72/96
f  110/93/97 111/94/97 112/95/97
f  111/94/98 113/96/98 112/95/98
f  113/96/99 114/97/99 112/95/99
f  114/97/100 115/98/100 112/95/100
f  115/98/101 116/99/101 112/95/101
f  116/99/102 117/100/102 112/95/102
f  117/100/103 118/101/103 112/95/103
f  118/101/104 119/102/104 112/95/104
f  119/102/105 120/103/105 112/95/105
f  120/103/106 121/104/106 112/95/106
f  121/104/107 122/105/107 112/95/107
f  122/106/108 110/93/108 112/95/108
f  75/65/109 96/66/109 97/67/109
f  97/67/110 76/68/110 75/65/110
f  123/107/111 124/108/111 67/58/111
f  68/59/50 125/109/50 123/107/50
f  123/107/50 67/58/50 68/59/50
f  66/57/112 126/110/112 73/64/112
f  127/111/50 71/62/50 72/63/50
f  66/57/113 67/58/113 124/108/113
f  124/108/114 126/110/114 66/57/114
f  65/56/115 73/64/115 128/112/115
f  128/112/50 129/113/50 72/63/50
f  72/63/50 65/56/50 128/112/50
f  72/63/116 129/113/116 127/111/116
f  130/114/50 69/60/50 70/61/50
f  71/62/117 127/111/117 131/115/117
f  131/115/118 132/116/118 70/61/118
f  70/61/119 71/62/119 131/115/119
f  70/61/120 132/116/120 130/114/120
f  125/109/113 68/59/113 69/60/113
f  69/60/114 133/117/114 125/109/114
f  69/60/121 130/114/121 133/117/121
f  131/118/122 85/68/122 83/67/122
f  83/67/123 132/119/123 131/118/123
f  127/118/124 87/68/124 85/67/124
f  85/67/125 131/119/125 127/118/125
f  129/118/126 89/68/126 87/67/126
f  87/67/127 127/119/127 129/118/127
f  128/118/128 91/68/128 89/67/128
f  89/67/129 129/119/129 128/118/129
f  76/67/130 123/119/130 125/118/130
f  125/118/131 77/68/131 76/67/131
f  77/67/132 125/119/132 133/118/132
f  133/118/133 79/68/133 77/67/133
f  79/67/134 133/119/134 130/118/134
f  130/118/135 81/68/135 79/67/135
f  81/67/136 130/119/136 132/118/136
f  132/118/137 83/68/137 81/67/137
f  91/67/138 128/119/138 73/118/138
f  73/118/139 93/68/139 91/67/139
f  93/67/140 73/119/140 126/118/140
f  126/118/141 95/68/141 93/67/141
f  97/67/142 124/119/142 123/118/142
f  123/118/143 76/68/143 97/67/143
f  95/67/144 126/119/144 124/118/144
f  124/118/145 97/68/145 95/67/145
f  111/120/146 110/121/146 99/71/146
f  99/71/147 98/70/147 111/120/147
f  113/122/148 111/120/148 98/70/148
f  98/70/149 100/74/149 113/122/149
f  114/123/150 113/122/150 100/74/150
f  100/74/151 101/76/151 114/123/151
f  115/124/152 114/123/152 101/76/152
f  101/76/153 102/78/153 115/124/153
f  116/125/154 115/124/154 102/78/154
f  102/78/155 103/80/155 116/125/155
f  117/126/156 116/125/156 103/80/156
f  103/80/157 104/82/157 117/126/157
f  118/127/158 117/126/158 104/82/158
f  104/82/159 105/84/159 118/127/159
f  119/128/160 118/127/160 105/84/160
f  105/84/161 106/86/161 119/128/161
f  120/129/162 119/128/162 106/86/162
f  106/86/163 107/88/163 120/129/163
f  121/130/164 120/129/164 107/88/164
f  107/88/165 108/90/165 121/130/165
f  122/131/166 121/130/166 108/90/166
f  108/90/167 109/92/167 122/131/167
f  110/121/168 122/131/168 109/92/168
f  109/92/169 99/71/169 110/121/169

