# File produced by Open Asset Import Library (http://www.assimp.sf.net)
# (assimp v5.0.1937526254)

mtllib wall1.mtl

# 133 vertex positions
v  0.301999986 1.86599994 -4.58662486e-09
v  0.301999986 2.13400006 4.58662486e-09
v  0.365999997 2.19799995 6.77725165e-09
v  0.634000003 2.19799995 6.77725165e-09
v  0.698000014 2.13400006 4.58662486e-09
v  0.698000014 1.86599994 -4.58662486e-09
v  0.634000003 1.80200005 -6.77725165e-09
v  0.365999997 1.80200005 -6.77725165e-09
v  0.634000003 1.80200005 0.051819995
v  0.365999997 1.80200005 0.051819995
v  0.698000014 2.13400006 0.0518200062
v  0.698000014 1.86599994 0.0518199988
v  0.365999997 2.19799995 0.0518200099
v  0.634000003 2.19799995 0.0518200099
v  0.301999986 1.86599994 0.0518199988
v  0.301999986 2.13400006 0.0518200062
v  0.369313776 1.80999994 0.0598200001
v  0.630686224 1.80999994 0.0598200001
v  0.689999998 1.86931384 0.0598200038
v  0.689999998 2.13068628 0.0598200113
v  0.630686224 2.19000006 0.059820015
v  0.369313776 2.19000006 0.059820015
v  0.310000002 2.13068628 0.0598200113
v  0.310000002 1.86931384 0.0598200038
v  0.49999994 1.84700394 0.0598200038
v  0.535185575 2.02031446 0.852000117
v  0.540628791 2 0.852000117
v  0.641198218 2 0.0713318065
v  0.622281194 2.07059908 0.0713318065
v  0.520314395 2.03518558 0.852000117
v  0.570599198 2.12228131 0.0713318139
v  0.49999997 2.04062867 0.852000117
v  0.5 2.14119816 0.0713318139
v  0.479685605 2.03518558 0.852000117
v  0.429400802 2.12228131 0.0713318139
v  0.464814395 2.02031446 0.852000117
v  0.377718806 2.07059908 0.0713318065
v  0.459371209 2 0.852000117
v  0.358801782 2 0.0713318065
v  0.464814395 1.97968554 0.852000117
v  0.377718806 1.9294008 0.0713318065
v  0.479685605 1.96481442 0.852000117
v  0.429400802 1.87771881 0.071331799
v  0.49999997 1.95937121 0.852000117
v  0.49999994 1.85880184 0.071331799
v  0.520314395 1.96481442 0.852000117
v  0.57059902 1.87771881 0.071331799
v  0.535185575 1.97968554 0.852000117
v  0.622281194 1.9294008 0.0713318065
v  0.528925598 2.01670027 0.857392073
v  0.533400416 2 0.857392073
v  0.516700208 2.02892566 0.857392073
v  0.49999997 2.0334003 0.857392073
v  0.483299792 2.02892566 0.857392073
v  0.471074402 2.01670027 0.857392073
v  0.466599584 2 0.857392073
v  0.471074402 1.98329973 0.857392073
v  0.483299792 1.97107434 0.857392073
v  0.49999997 1.96659958 0.857392073
v  0.516700208 1.97107434 0.857392073
v  0.528925598 1.98329973 0.857392073
v  0.526171982 2 0.852000117
v  0.52266562 2.01308584 0.852000117
v  0.49999997 2 0.807835996
v  0.513085961 2.0226655 0.852000117
v  0.49999997 2.02617192 0.852000117
v  0.486914009 2.0226655 0.852000117
v  0.47733441 2.01308584 0.852000117
v  0.473827988 2 0.852000117
v  0.47733441 1.98691404 0.852000117
v  0.486914009 1.97733438 0.852000117
v  0.49999997 1.97382796 0.852000117
v  0.513085961 1.97733438 0.852000117
v  0.52266562 1.98691392 0.852000117
v  0.652996004 2 0.0598200075
v  0.632221818 1.92092681 0.0598200038
v  0.632221818 2.07907319 0.0598200113
v  0.579073191 1.86777818 0.0598200038
v  0.347003996 2 0.0598200075
v  0.420926809 1.86777818 0.0598200038
v  0.367778182 1.92092681 0.0598200038
v  0.5 2.15299606 0.0598200113
v  0.367778182 2.07907319 0.0598200113
v  0.420926809 2.1322217 0.0598200113
v  0.579073191 2.1322217 0.0598200113
v  3.02432609 4 0
v  -2.97567391 4 0
v  -2.97567391 4 2.5
v  3.02432609 4 2.5
v  3.02432609 3.8499999 0
v  -2.97567391 3.8499999 0
v  -2.97567391 3.8499999 2.5
v  3.02432609 3.8499999 2.5
v  3.02433014 -4 0
v  3.02433014 4 0
v  3.02433014 4 2.5
v  3.02433014 -4 2.5
v  2.87433004 -4 0
v  2.87433004 4 0
v  2.87433004 4 2.5
v  2.87433004 -4 2.5
v  -2.97567391 -4 0
v  3.02432609 -4 0
v  3.02432609 -4 2.5
v  -2.97567391 -4 2.5
v  -2.97567391 -3.8499999 0
v  3.02432609 -3.8499999 0
v  3.02432609 -3.8499999 2.5
v  -2.97567391 -3.8499999 2.5
v  -2.82567 -4 0
v  -2.82567 4 0
v  -2.82567 4 2.5
v  -2.82567 -4 2.5
v  -2.9756701 -4 0
v  -2.9756701 4 0
v  -2.9756701 4 2.5
v  -2.9756701 -4 2.5
v  -0.929360032 0.0350000039 0.00499999523
v  -2.92935991 0.0350000039 0.00499999523
v  -2.92935991 0.0350000039 2.49499989
v  -0.929360032 0.0350000039 2.49499989
v  -0.929360032 -0.115000002 0.00499999523
v  -2.92935991 -0.115000002 0.00499999523
v  -2.92935991 -0.115000002 2.49499989
v  -0.929360032 -0.115000002 2.49499989
v  2.92359996 0.0350000039 0.00499999523
v  0.923599958 0.0350000039 0.00499999523
v  0.923599958 0.0350000039 2.49499989
v  2.92359996 0.0350000039 2.49499989
v  2.92359996 -0.115000002 0.00499999523
v  0.923599958 -0.115000002 0.00499999523
v  0.923599958 -0.115000002 2.49499989
v  2.92359996 -0.115000002 2.49499989

# 98 UV coordinates
vt 0.00186803995 0.143660009 1
vt 0.00186803995 0.737824023 1
vt 0.143757999 0.879714012 1
vt 0.737922013 0.879714012 1
vt 0.879812002 0.737824023 1
vt 0.879812002 0.143660009 1
vt 0.737922013 0.00176995993 1
vt 0.143757999 0.00176995993 1
vt 0.231564999 0.89477098 1
vt 0.877704978 0.89477098 1
vt 0.877704978 0.991131008 1
vt 0.231564999 0.991131008 1
vt 0.660769999 0.89477098 1
vt 0.0146297002 0.89477098 1
vt 0.0146297002 0.991131008 1
vt 0.660769999 0.991131008 1
vt 0.0146295996 0.89477098 1
vt 0.0146295996 0.991131008 1
vt 0.151105002 0.019506216 1
vt 0.730575979 0.019506216 1
vt 0.862075984 0.151006997 1
vt 0.862075984 0.730477989 1
vt 0.730575979 0.861977994 1
vt 0.151105002 0.861977994 1
vt 0.0196043998 0.730477989 1
vt 0.0196043998 0.151006997 1
vt 0.440840006 0.101544976 1
vt 0.958819985 0.995240986 1
vt 0.932891011 0.995240986 1
vt 0.900801003 0.0253494978 1
vt 0.990911007 0.025349617 1
vt 0.91682601 0.861988008 1
vt 0.906368017 0.855955005 1
vt 0.912436008 0.833281994 1
vt 0.924510002 0.833281994 1
vt 0.895821989 0.88301301 1
vt 0.889782012 0.872560024 1
vt 0.867115021 0.890712023 1
vt 0.867115021 0.878639996 1
vt 0.838407993 0.88301301 1
vt 0.844447017 0.872560024 1
vt 0.817403018 0.861988008 1
vt 0.827861011 0.855955005 1
vt 0.80971998 0.833281994 1
vt 0.821793973 0.833281994 1
vt 0.817403972 0.804575026 1
vt 0.827861011 0.810608029 1
vt 0.838407993 0.783550024 1
vt 0.844447017 0.79400301 1
vt 0.867115021 0.775851011 1
vt 0.867115021 0.787922978 1
vt 0.895821989 0.783549011 1
vt 0.889782012 0.79400301 1
vt 0.91682601 0.804575026 1
vt 0.906368971 0.810608029 1
vt 0.109070003 0.872420013 1
vt 0.0926292986 0.880136013 1
vt 0.0718680993 0.814530015 1
vt 0.0747421011 0.883283973 1
vt 0.0566536002 0.881641984 1
vt 0.0396239012 0.875322998 1
vt 0.0248400997 0.864767015 1
vt 0.0133325998 0.850708008 1
vt 0.00590476999 0.834129989 1
vt 0.00307387998 0.816187024 1
vt 0.00503600994 0.798130989 1
vt 0.0116534 0.781219006 1
vt 0.0224642009 0.766627014 1
vt 0.122919001 0.860670984 1
vt 0.780036986 0.440742016 1
vt 0.73398 0.265434027 1
vt 0.73398 0.616050005 1
vt 0.616147995 0.147602022 1
vt 0.101643004 0.440742016 1
vt 0.265531987 0.147602022 1
vt 0.147699997 0.265434027 1
vt 0.440840006 0.779938996 1
vt 0.147699997 0.616050005 1
vt 0.265531987 0.73388201 1
vt 0.616147995 0.73388201 1
vt 0.994813025 0.0046774745 1
vt 0.896898985 0.0046775341 1
vt 0.895910025 0.849922001 1
vt 0.900362015 0.833281994 1
vt 0.883741975 0.862106979 1
vt 0.867115021 0.866568029 1
vt 0.850486994 0.862106025 1
vt 0.838319004 0.849922001 1
vt 0.833867013 0.833281994 1
vt 0.838319004 0.816640973 1
vt 0.850486994 0.804455996 1
vt 0.867115021 0.799995005 1
vt 0.883742988 0.804455996 1
vt 0.895910978 0.816640973 1
vt 1 0 1
vt 0 0 1
vt 0 1 1
vt 1 1 1

# 169 vertex normals
vn 0 6.84570872e-11 -0.00200000009
vn 0 -0.00200000009 -6.84570872e-11
vn 0.00200000009 0 0
vn 0 0.00200000009 6.84570872e-11
vn -0.00200000009 0 0
vn 0.00141421356 -0.00141421356 -4.84064698e-11
vn 0.00141421333 -0.0014142138 -4.84064767e-11
vn -0.00141421356 -0.00141421356 -4.84064698e-11
vn -0.00141421333 -0.0014142138 -4.84064767e-11
vn 0.00141421333 0.0014142138 4.84064767e-11
vn 0.00141421356 0.00141421356 4.84064698e-11
vn -0.00141421356 0.00141421356 4.84064698e-11
vn -0.00141421333 0.0014142138 4.84064767e-11
vn 0 -0.00141421298 0.00141421403
vn 0 -0.001414211 0.00141421636
vn 0.00141421403 -4.8406449e-11 0.00141421298
vn 0.0014142138 -4.84064629e-11 0.00141421333
vn 0 0.00141421298 0.00141421403
vn 0 0.001414211 0.00141421636
vn -0.00141421403 -4.8406449e-11 0.00141421298
vn -0.0014142138 -4.84064629e-11 0.00141421333
vn -0.000999997137 -0.000999996555 0.0014142181
vn -0.000999995274 -0.000999995857 0.00141421985
vn 0.000999996788 -0.00099999737 0.00141421764
vn 0.00099999574 -0.000999995158 0.00141422031
vn -0.000999996788 0.00099999737 0.00141421764
vn -0.00099999574 0.000999995158 0.00141422031
vn 0.000999997137 0.000999996555 0.0014142181
vn 0.000999995274 0.000999995857 0.00141421985
vn 0 -6.84570872e-11 0.00200000009
vn 0.00191706733 0.000513674284 0.000246965821
vn 0.00191706675 0.000513676612 0.000246965647
vn 0.00140338996 0.00140339043 0.000246965792
vn 0.00140339031 0.00140339008 0.000246965792
vn 0.000513672712 0.00191706792 0.000246965792
vn 0.000513676554 0.00191706675 0.000246965734
vn -0.000513674517 0.0019170671 0.000246965763
vn -0.000513676729 0.00191706675 0.000246965676
vn -0.00140339043 0.00140338996 0.000246965734
vn -0.00140339031 0.0014033902 0.00024696585
vn -0.00191706722 0.0005136744 0.000246965559
vn -0.00191706675 0.000513676787 0.000246965705
vn -0.00191706745 -0.000513674051 0.000246965705
vn -0.00191706675 -0.000513676554 0.000246965588
vn -0.00140338996 -0.00140339043 0.000246965676
vn -0.00140339031 -0.00140339008 0.000246965676
vn -0.000513673702 -0.00191706745 0.000246965559
vn -0.000513677136 -0.00191706663 0.000246965647
vn 0.000513673469 -0.00191706745 0.000246965676
vn 0.000513677485 -0.0019170664 0.000246965501
vn 0.00140339043 -0.00140338996 0.000246965268
vn 0.00140338764 -0.00140339276 0.000246965559
vn 0.00118076405 0.000316389138 0.00158293848
vn 0.0011808062 0.000316382298 0.00158290856
vn 0.000864398433 0.000864383241 0.00158292684
vn 0.000864384929 0.00086438749 0.00158293208
vn 0.000316386984 0.00118077674 0.0015829294
vn 0.000316388963 0.0011807743 0.00158293103
vn -0.000316370948 0.00118077593 0.00158293336
vn -0.000316402438 0.00118077488 0.00158292789
vn -0.000864375732 0.000864388887 0.00158293615
vn -0.000864406931 0.000864383765 0.00158292206
vn -0.00118076627 0.000316389283 0.00158293685
vn -0.00118078792 0.000316384714 0.00158292172
vn -0.00118074368 -0.000316392165 0.00158295338
vn -0.00118078943 -0.000316384801 0.00158292067
vn -0.000864402507 -0.000864384463 0.00158292393
vn -0.000864384929 -0.000864387606 0.00158293208
vn -0.00031638713 -0.00118077686 0.00158292917
vn -0.000316389807 -0.00118077488 0.00158293056
vn 0.000316370686 -0.00118077523 0.00158293394
vn 0.000316401769 -0.00118077523 0.00158292765
vn 0.000864376605 -0.000864392729 0.00158293371
vn 0.000864404661 -0.000864381611 0.00158292428
vn 0.0011807452 -0.000316392106 0.0015829521
vn 0.00118078827 -0.000316384889 0.00158292148
vn -0.0016766038 -0.000449246727 0.000993568217
vn -0.00122735673 -0.0012273608 0.000993569964
vn -0.000449248648 -0.00167660275 0.000993568799
vn 0.000449242507 -0.00167660415 0.000993569498
vn 0.00122735812 -0.00122735975 0.000993569614
vn 0.00167660485 -0.000449246669 0.000993566355
vn 0.00167660438 0.000449246814 0.00099356717
vn 0.00122735824 0.00122735987 0.000993569498
vn 0.000449249404 0.00167660264 0.000993568799
vn -0.000449242478 0.00167660427 0.000993569498
vn -0.0012273601 0.00122735987 0.00099356717
vn -0.00167660241 0.000449247105 0.000993570429
vn 0.00191706733 -0.000513674284 0.00024696553
vn 0.00191706675 -0.000513676729 0.000246965647
vn 2.11329301e-10 -6.84570803e-11 0.00199999986
vn 5.2832301e-11 -6.84570872e-11 0.00200000009
vn -1.83726576e-10 -6.84570872e-11 0.00200000009
vn 2.05038708e-10 -6.84570872e-11 0.00200000009
vn -5.28323912e-11 -6.84570872e-11 0.00200000009
vn -4.22658492e-10 -6.84570872e-11 0.00200000009
vn 2.11329329e-10 -6.84570872e-11 0.00200000009
vn -2.05038708e-10 -6.84570872e-11 0.00200000009
vn 1.83726576e-10 -6.84570872e-11 0.00200000009
vn -5.28323427e-11 -6.84570872e-11 0.00200000009
vn 5.28323219e-11 -6.84570872e-11 0.00200000009
vn -0.00093670818 0.000936708588 0.00149838394
vn -0.000936707482 0.000936708355 0.00149838487
vn -0.00137292582 0.000367874367 0.00140703365
vn -0.00135268702 0.000355379627 0.00142966525
vn -0.00134932192 -0.000361549086 0.00143129774
vn -0.0013738228 -0.000360932754 0.00140795566
vn -0.000936707656 -0.000936707715 0.00149838498
vn -0.000936707365 -0.000936708821 0.00149838463
vn 0.0013738228 0.000360932638 0.00140795566
vn 0.00134932203 0.000361548999 0.00143129763
vn 0.000936707365 0.000936708704 0.00149838463
vn 0.000936707656 0.000936707598 0.00149838498
vn 0.000355379365 0.00135268737 0.00142966537
vn 0.000367874221 0.00137292594 0.00140703341
vn -0.000360932463 0.00137382396 0.00140795449
vn -0.00036154961 0.0013493211 0.00143129821
vn -0.00035537951 -0.00135268667 0.00142966595
vn -0.000367874367 -0.00137292524 0.00140703411
vn 0.000360931852 -0.00137382292 0.00140795589
vn 0.000361549406 -0.00134931772 0.00143130147
vn 0.00135268806 -0.00035537951 0.00142966479
vn 0.00137292524 -0.0003678746 0.00140703411
vn 0.000936701661 -0.000936702825 0.00149839197
vn 0.000936706783 -0.0009367108 0.00149838359
vn -0.00118078862 -0.00031638777 0.00158292067
vn -0.00118076336 -0.000316388556 0.00158293929
vn -0.000864406116 -0.000864381262 0.00158292393
vn -0.000864374044 -0.000864390691 0.00158293603
vn -0.000316391437 -0.0011807729 0.00158293149
vn -0.000316371705 -0.00118077791 0.00158293161
vn 0.000316392659 -0.00118077639 0.00158292882
vn 0.000316386082 -0.00118077383 0.00158293196
vn 0.000864406815 -0.000864380971 0.00158292335
vn 0.000864374568 -0.000864387781 0.00158293743
vn 0.00118077977 -0.000316388614 0.00158292695
vn 0.00118076592 -0.000316388614 0.0015829372
vn 0.00118078326 0.000316388381 0.00158292451
vn 0.00118076312 0.00031638841 0.00158293941
vn 0.000864406815 0.000864380214 0.00158292393
vn 0.000864374684 0.000864388247 0.00158293708
vn 0.000316391728 0.00118077185 0.00158293231
vn 0.000316371908 0.00118077837 0.00158293126
vn -0.000316392485 0.00118077616 0.0015829287
vn -0.000316385907 0.00118077372 0.00158293196
vn -0.000864388887 0.000864385976 0.00158293056
vn -0.000864373869 0.000864390167 0.00158293662
vn -0.00118077872 0.000316388207 0.00158292777
vn -0.0011807608 0.000316388818 0.00158294104
vn 1.83697013e-19 0.00150000001 0
vn -0 0 -0.0250000004
vn -0.0599999987 7.34788095e-18 0
vn 0 0 0.0250000004
vn 0.0599999987 -7.34788095e-18 0
vn -1.83697013e-19 -0.00150000001 0
vn 0.00150000001 -3.3306691e-19 0
vn 1.7763568e-17 0.0799999982 0
vn -1.7763568e-17 -0.0799999982 0
vn -0.00150000001 3.3306691e-19 0
vn 0 -0.00150000001 0
vn 0.0599999987 0 0
vn -0.0599999987 0 0
vn 0 0.00150000001 0
vn 1.83697026e-19 0.00150000001 0
vn -0 0 -0.0249000005
vn -0.0199999996 2.44929358e-18 0
vn 0 0 0.0249000005
vn 0.0199999996 -2.44929358e-18 0
vn -1.83697026e-19 -0.00150000001 0

# Mesh 'Shape_IndexedFaceSet_001' with 166 faces
g Shape_IndexedFaceSet_001
usemtl Shape_001
f  1/1/1 2/2/1 3/3/1
f  3/3/1 4/4/1 5/5/1
f  1/1/1 3/3/1 5/5/1
f  5/5/1 6/6/1 7/7/1
f  1/1/1 5/5/1 7/7/1
f  8/8/1 1/1/1 7/7/1
f  8/9/2 7/10/2 9/11/2
f  9/11/2 10/12/2 8/9/2
f  6/13/3 5/14/3 11/15/3
f  11/15/3 12/16/3 6/13/3
f  4/9/4 3/10/4 13/11/4
f  13/11/4 14/12/4 4/9/4
f  2/13/5 1/14/5 15/15/5
f  15/15/5 16/16/5 2/13/5
f  7/10/6 6/13/6 12/16/6
f  12/16/7 9/11/7 7/10/7
f  10/16/8 15/11/8 1/10/8
f  1/10/9 8/13/9 10/16/9
f  5/17/10 4/9/10 14/12/10
f  14/12/11 11/18/11 5/17/11
f  3/17/12 2/9/12 16/12/12
f  16/12/13 13/18/13 3/17/13
f  17/19/14 10/8/14 9/7/14
f  9/7/15 18/20/15 17/19/15
f  19/21/16 12/6/16 11/5/16
f  11/5/17 20/22/17 19/21/17
f  21/23/18 14/4/18 13/3/18
f  13/3/19 22/24/19 21/23/19
f  23/25/20 16/2/20 15/1/20
f  15/1/21 24/26/21 23/25/21
f  10/8/22 17/19/22 24/26/22
f  24/26/23 15/1/23 10/8/23
f  12/6/24 19/21/24 18/20/24
f  18/20/25 9/7/25 12/6/25
f  16/2/26 23/25/26 22/24/26
f  22/24/27 13/3/27 16/2/27
f  14/4/28 21/23/28 20/22/28
f  20/22/29 11/5/29 14/4/29
f  25/27/30 17/19/30 18/20/30
f  26/28/31 27/29/31 28/30/31
f  28/30/32 29/31/32 26/28/32
f  30/28/33 26/29/33 29/30/33
f  29/30/34 31/31/34 30/28/34
f  32/28/35 30/29/35 31/30/35
f  31/30/36 33/31/36 32/28/36
f  34/28/37 32/29/37 33/30/37
f  33/30/38 35/31/38 34/28/38
f  36/28/39 34/29/39 35/30/39
f  35/30/40 37/31/40 36/28/40
f  38/28/41 36/29/41 37/30/41
f  37/30/42 39/31/42 38/28/42
f  40/28/43 38/29/43 39/30/43
f  39/30/44 41/31/44 40/28/44
f  42/28/45 40/29/45 41/30/45
f  41/30/46 43/31/46 42/28/46
f  44/28/47 42/29/47 43/30/47
f  43/30/48 45/31/48 44/28/48
f  46/28/49 44/29/49 45/30/49
f  45/30/50 47/31/50 46/28/50
f  48/28/51 46/29/51 47/30/51
f  47/30/52 49/31/52 48/28/52
f  26/32/53 50/33/53 51/34/53
f  51/34/54 27/35/54 26/32/54
f  30/36/55 52/37/55 50/33/55
f  50/33/56 26/32/56 30/36/56
f  32/38/57 53/39/57 52/37/57
f  52/37/58 30/36/58 32/38/58
f  34/40/59 54/41/59 53/39/59
f  53/39/60 32/38/60 34/40/60
f  36/42/61 55/43/61 54/41/61
f  54/41/62 34/40/62 36/42/62
f  38/44/63 56/45/63 55/43/63
f  55/43/64 36/42/64 38/44/64
f  40/46/65 57/47/65 56/45/65
f  56/45/66 38/44/66 40/46/66
f  42/48/67 58/49/67 57/47/67
f  57/47/68 40/46/68 42/48/68
f  44/50/69 59/51/69 58/49/69
f  58/49/70 42/48/70 44/50/70
f  46/52/71 60/53/71 59/51/71
f  59/51/72 44/50/72 46/52/72
f  48/54/73 61/55/73 60/53/73
f  60/53/74 46/52/74 48/54/74
f  27/35/75 51/34/75 61/55/75
f  61/55/76 48/54/76 27/35/76
f  62/56/77 63/57/77 64/58/77
f  63/57/78 65/59/78 64/58/78
f  65/59/79 66/60/79 64/58/79
f  66/60/80 67/61/80 64/58/80
f  67/61/81 68/62/81 64/58/81
f  68/62/82 69/63/82 64/58/82
f  69/63/83 70/64/83 64/58/83
f  70/64/84 71/65/84 64/58/84
f  71/65/85 72/66/85 64/58/85
f  72/66/86 73/67/86 64/58/86
f  73/67/87 74/68/87 64/58/87
f  74/69/88 62/56/88 64/58/88
f  27/28/89 48/29/89 49/30/89
f  49/30/90 28/31/90 27/28/90
f  75/70/91 76/71/91 19/21/91
f  20/22/30 77/72/30 75/70/30
f  75/70/30 19/21/30 20/22/30
f  18/20/92 78/73/92 25/27/92
f  79/74/30 23/25/30 24/26/30
f  18/20/93 19/21/93 76/71/93
f  76/71/94 78/73/94 18/20/94
f  17/19/95 25/27/95 80/75/95
f  80/75/30 81/76/30 24/26/30
f  24/26/30 17/19/30 80/75/30
f  24/26/96 81/76/96 79/74/96
f  82/77/30 21/23/30 22/24/30
f  23/25/97 79/74/97 83/78/97
f  83/78/98 84/79/98 22/24/98
f  22/24/99 23/25/99 83/78/99
f  22/24/100 84/79/100 82/77/100
f  77/72/93 20/22/93 21/23/93
f  21/23/94 85/80/94 77/72/94
f  21/23/101 82/77/101 85/80/101
f  83/81/102 37/31/102 35/30/102
f  35/30/103 84/82/103 83/81/103
f  79/81/104 39/31/104 37/30/104
f  37/30/105 83/82/105 79/81/105
f  81/81/106 41/31/106 39/30/106
f  39/30/107 79/82/107 81/81/107
f  80/81/108 43/31/108 41/30/108
f  41/30/109 81/82/109 80/81/109
f  28/30/110 75/82/110 77/81/110
f  77/81/111 29/31/111 28/30/111
f  29/30/112 77/82/112 85/81/112
f  85/81/113 31/31/113 29/30/113
f  31/30/114 85/82/114 82/81/114
f  82/81/115 33/31/115 31/30/115
f  33/30/116 82/82/116 84/81/116
f  84/81/117 35/31/117 33/30/117
f  43/30/118 80/82/118 25/81/118
f  25/81/119 45/31/119 43/30/119
f  45/30/120 25/82/120 78/81/120
f  78/81/121 47/31/121 45/30/121
f  49/30/122 76/82/122 75/81/122
f  75/81/123 28/31/123 49/30/123
f  47/30/124 78/82/124 76/81/124
f  76/81/125 49/31/125 47/30/125
f  63/83/126 62/84/126 51/34/126
f  51/34/127 50/33/127 63/83/127
f  65/85/128 63/83/128 50/33/128
f  50/33/129 52/37/129 65/85/129
f  66/86/130 65/85/130 52/37/130
f  52/37/131 53/39/131 66/86/131
f  67/87/132 66/86/132 53/39/132
f  53/39/133 54/41/133 67/87/133
f  68/88/134 67/87/134 54/41/134
f  54/41/135 55/43/135 68/88/135
f  69/89/136 68/88/136 55/43/136
f  55/43/137 56/45/137 69/89/137
f  70/90/138 69/89/138 56/45/138
f  56/45/139 57/47/139 70/90/139
f  71/91/140 70/90/140 57/47/140
f  57/47/141 58/49/141 71/91/141
f  72/92/142 71/91/142 58/49/142
f  58/49/143 59/51/143 72/92/143
f  73/93/144 72/92/144 59/51/144
f  59/51/145 60/53/145 73/93/145
f  74/94/146 73/93/146 60/53/146
f  60/53/147 61/55/147 74/94/147
f  62/84/148 74/94/148 61/55/148
f  61/55/149 51/34/149 62/84/149

# Mesh 'Wall1' with 6 faces
g Wall1
usemtl Oak
f  86/95/150 87/96/150 88/97/150 89/98/150
f  86/95/151 90/98/151 91/97/151 87/96/151
f  87/95/152 91/96/152 92/97/152 88/98/152
f  89/95/153 88/96/153 92/97/153 93/98/153
f  86/95/154 89/98/154 93/97/154 90/96/154
f  90/95/155 93/98/155 92/97/155 91/96/155

# Mesh 'Wall3' with 6 faces
g Wall3
usemtl Oak
f  94/95/156 95/96/156 96/97/156 97/98/156
f  94/95/151 98/98/151 99/97/151 95/96/151
f  95/95/157 99/96/157 100/97/157 96/98/157
f  97/95/153 96/96/153 100/97/153 101/98/153
f  94/95/158 97/98/158 101/97/158 98/96/158
f  98/95/159 101/98/159 100/97/159 99/96/159

# Mesh 'Wall2' with 6 faces
g Wall2
usemtl Oak
f  102/95/160 103/96/160 104/97/160 105/98/160
f  102/95/151 106/98/151 107/97/151 103/96/151
f  103/95/161 107/96/161 108/97/161 104/98/161
f  105/95/153 104/96/153 108/97/153 109/98/153
f  102/95/162 105/98/162 109/97/162 106/96/162
f  106/95/163 109/98/163 108/97/163 107/96/163

# Mesh 'Wall4' with 6 faces
g Wall4
usemtl Oak
f  110/95/156 111/96/156 112/97/156 113/98/156
f  110/95/151 114/98/151 115/97/151 111/96/151
f  111/95/157 115/96/157 116/97/157 112/98/157
f  113/95/153 112/96/153 116/97/153 117/98/153
f  110/95/158 113/98/158 117/97/158 114/96/158
f  114/95/159 117/98/159 116/97/159 115/96/159

# Mesh 'Wall5' with 6 faces
g Wall5
usemtl material_DefaultMaterial
f  118/95/164 119/96/164 120/97/164 121/98/164
f  118/95/165 122/98/165 123/97/165 119/96/165
f  119/95/166 123/96/166 124/97/166 120/98/166
f  121/95/167 120/96/167 124/97/167 125/98/167
f  118/95/168 121/98/168 125/97/168 122/96/168
f  122/95/169 125/98/169 124/97/169 123/96/169

# Mesh 'Wall6' with 6 faces
g Wall6
usemtl material_DefaultMaterial
f  126/95/164 127/96/164 128/97/164 129/98/164
f  126/95/165 130/98/165 131/97/165 127/96/165
f  127/95/166 131/96/166 132/97/166 128/98/166
f  129/95/167 128/96/167 132/97/167 133/98/167
f  126/95/168 129/98/168 133/97/168 130/96/168
f  130/95/169 133/98/169 132/97/169 131/96/169

